<svg width="124" height="124" viewBox="-3.7 -5 124 124" fill="none" xmlns="http://www.w3.org/2000/svg">
<mask id="mask0_40_2118" style="mask-type:luminance" maskUnits="userSpaceOnUse" x="27" y="0" width="63" height="73">
<path d="M27.0625 0H89.5833V72.776H27.0625V0Z" fill="white"/>
</mask>
<g mask="url(#mask0_40_2118)">
<mask id="mask1_40_2118" style="mask-type:luminance" maskUnits="userSpaceOnUse" x="27" y="0" width="63" height="73">
<path d="M58.3229 72.75L27.0625 54.5625V18.1875L58.3229 0L89.5833 18.1875V54.5625L58.3229 72.75Z" fill="white"/>
</mask>
<g mask="url(#mask1_40_2118)">
<mask id="mask2_40_2118" style="mask-type:luminance" maskUnits="userSpaceOnUse" x="26" y="-1" width="65" height="75">
<path d="M90.6666 -0.989624H26.6666V73.677H90.6666V-0.989624Z" fill="white"/>
</mask>
<g mask="url(#mask2_40_2118)">
<mask id="mask3_40_2118" style="mask-type:luminance" maskUnits="userSpaceOnUse" x="27" y="0" width="63" height="73">
<path d="M27.0625 0H89.5833V72.776H27.0625V0Z" fill="white"/>
</mask>
<g mask="url(#mask3_40_2118)">
<mask id="mask4_40_2118" style="mask-type:luminance" maskUnits="userSpaceOnUse" x="27" y="0" width="63" height="73">
<path d="M58.3229 72.75L27.0625 54.5625V18.1875L58.3229 0L89.5833 18.1875V54.5625L58.3229 72.75Z" fill="white"/>
</mask>
<g mask="url(#mask4_40_2118)">
<path d="M89.5833 0V72.776H27.0625V0H89.5833Z" fill="#FF914D"/>
</g>
</g>
</g>
</g>
</g>
<mask id="mask5_40_2118" style="mask-type:luminance" maskUnits="userSpaceOnUse" x="20" y="11" width="76" height="59">
<path d="M20.7969 11.6146H95.5938V69.6771H20.7969V11.6146Z" fill="white"/>
</mask>
<g mask="url(#mask5_40_2118)">
<path d="M58.3281 11.6042C45.1458 11.6042 32.9323 18.5209 26.1562 29.8282H90.4948C83.724 18.5209 71.5104 11.6042 58.3281 11.6042ZM24.3906 33.1511C23.8802 34.2345 23.4219 35.3386 23.0156 36.4688H93.6354C93.2344 35.3386 92.776 34.2345 92.2656 33.1511H24.3906ZM22 39.7917C21.7187 40.8855 21.4896 41.9949 21.3073 43.1095H95.3438C95.1667 41.9949 94.9323 40.8855 94.651 39.7917H22ZM20.9219 46.4272C20.8594 47.3178 20.8281 48.2084 20.8281 49.1042C20.8281 49.3178 20.8281 49.5313 20.8333 49.7501H95.8229C95.8281 49.5313 95.8281 49.3178 95.8281 49.1042C95.8281 48.2084 95.7969 47.3178 95.7344 46.4272H20.9219ZM21.0365 53.0678C21.1563 54.1824 21.3229 55.2918 21.5417 56.3907H95.1146C95.3333 55.2918 95.5 54.1824 95.6198 53.0678H21.0365ZM22.3542 59.7084C22.6875 60.8334 23.0729 61.9428 23.5052 63.0261H93.1458C93.5833 61.9428 93.9635 60.8334 94.2969 59.7084H22.3542ZM25.026 66.349C25.6146 67.4845 26.2656 68.5938 26.9688 69.6667H89.6875C90.3906 68.5938 91.0417 67.4845 91.6302 66.349H25.026Z" fill="white"/>
</g>
<path d="M59.9167 15.0677C59.1458 15.0573 58.4167 15.2396 57.8958 15.6927C57.7083 15.8021 57.3698 17.5937 57.3698 17.5937C57.3698 17.5937 56.0469 17.8385 56.026 18.5573C56.0104 19.276 56.6875 19.7291 57.4271 19.7291C57.4271 19.7291 57.0104 20.9531 57.8021 23.4062C57.8021 23.4062 57.0833 23.4427 56.7448 23.6146C56.4062 23.7864 55.5573 24.1406 55.2969 24.0468C55.0312 23.9531 54.5417 23.6875 54.349 23.6875C54.1615 23.6875 50.6146 23.8802 49.7656 23.9375C48.9167 23.9948 47.4844 23.8958 47.3333 24.1041C47.3333 24.1041 44.2969 24.0833 43.3698 25.1614C42.4479 26.2343 42.9896 29.0885 43.4167 30.3698C43.8437 31.651 44.2187 33.2396 44.2031 33.5208C44.1823 33.8021 44.3333 34.7656 44.3333 34.7656C44.3333 34.7656 43.2604 35.651 43.2396 36.0833C43.2187 36.5156 45.8594 38.3125 48.6354 38.2135C48.6354 38.2135 49.4844 38.651 50.2187 37.875C50.2187 37.875 50.8437 38.0677 51.4062 37.1979C51.4062 37.1979 51.5 38.7656 51.3698 39.6718C51.2396 40.5729 51.0469 42.2916 51.0469 42.2916C51.0469 42.2916 50.6146 43.8593 50.3333 44.3281C50.0469 44.8021 49.5417 45.9896 49.5417 45.9896C49.5417 45.9896 48.5208 47.1979 45.7292 48.9687C42.9375 50.7448 42.4062 51.4218 42.0104 51.7239C41.6146 52.026 40.9167 52.2916 40.7292 52.6302C40.5417 52.9687 39.276 55.0469 38.3333 57.9896C37.3906 60.9323 36.8594 62.026 36.6354 62.7031C36.4115 63.3854 35.5052 65.1562 35.5052 65.1562C35.5052 65.1562 34.4115 65.6458 34.4115 66.5156C34.4115 67.3854 33.9583 69.0416 33.9583 69.0416V69.3333C33.9583 69.3333 33.276 69.9219 32.901 70.1094C32.526 70.2969 32.0208 70.1614 31.7552 70.5625C31.7552 70.5625 31.1927 70.4166 31.0469 70.5625C30.901 70.7083 30.3542 70.9219 29.6354 71.0937C28.9115 71.2708 28.7135 71.5364 28.8594 72.2708C28.8594 72.2708 30.1667 73.2552 31.3698 73.5937C32.5781 73.9323 34.3906 73.3646 35.599 73.1771C36.8073 72.9896 38.2187 72.9323 38.2187 72.7448V71.25C38.2187 71.25 38.4479 71.1198 38.125 70.5937C38.125 70.5937 38.7083 70.5156 38.6927 69.5729C38.6719 68.6302 40.0521 67.4791 40.4844 66.3073C40.9167 65.1406 41.2396 64.4219 41.2396 63.9531C41.2396 63.4791 43.0417 61.4271 43.2812 58.7031C43.2812 58.7031 44.026 58.1562 44.1042 57.7552C44.1875 57.3541 44.1615 56.8906 44.1615 56.8906C44.1615 56.8906 45.0833 56.6093 45.4687 56.4375C45.8542 56.2604 46.9479 55.875 46.9479 55.875C46.9479 55.875 49.5365 55.7656 51.8437 54.875C54.151 53.9791 55.4271 53.1614 58.4635 53.2916C61.5 53.4218 68.2552 56.3021 69.776 57.1302C71.2969 57.9531 72.0156 58.8333 74.6302 59.0781C77.2448 59.3177 80.901 61.7187 81.7292 61.8229C82.5521 61.9323 83.0365 61.5833 83.3542 61.7969C83.6719 62.0104 84.0729 62.3594 84.3125 62.5989C84.5521 62.8385 84.2083 63.1823 85.4896 62.9427C85.4896 62.9427 86.7188 63.1823 86.8229 63.1302C86.8229 63.1302 88.6875 64.0469 89.724 64.1771C90.7604 64.3073 92.6094 64.2135 92.9688 63.8385C93.3281 63.4635 93.026 62.5 92.2708 61.7239C91.5156 60.9531 90.5 60.5 90.1042 60.4219C89.7083 60.3489 88.2135 60.1562 87.0052 59.1979C87.0052 59.1979 86.0052 58.2708 85.6458 58.1041C85.2917 57.9323 84.6094 57.9687 84.6094 57.9687C84.6094 57.9687 80.9323 56.1614 80.0052 55.5156C79.0833 54.875 77.349 55.0833 77.1406 54.8385C76.9323 54.5937 76.7031 54.3281 75.8542 54.3281C75.8542 54.3281 75.2344 53.875 74.6667 53.8593C74.6667 53.8593 68.625 48.776 66.7031 46.6146C64.7812 44.4531 64.276 43.0677 64.276 43.0677C64.276 43.0677 64.8073 42.8541 64.6198 42.4791C64.4323 42.1093 64.1667 42.0781 64.1667 42.0781C64.1667 42.0781 65.1562 41.4948 65.0781 41.0937C64.9948 40.6927 64.5677 39.4635 64.625 38.7708C64.6771 38.0781 65.3177 33.4896 65.2344 31.7812C65.2344 31.7812 65.7188 31.6198 66.9167 31.651C68.1198 31.6771 70.8958 30.2604 71.8281 28.9791C72.7604 27.6979 75.1094 24.125 75.3229 23.6198C75.5365 23.1093 75.5104 22.0677 75.5104 22.0677C75.5104 22.0677 76.1146 21.7291 76.026 21.4531C75.9427 21.1823 75.5729 20.9948 75.5729 20.9948C75.5729 20.9948 75.7292 19.4635 74.2344 19.0885C74.2344 19.0885 74.349 18.9166 74.0469 18.8021C73.7448 18.6927 73.4062 18.625 73.3021 18.651C73.1979 18.6823 72.5365 19.151 72.526 19.2812C72.5208 19.4166 72.5573 19.5468 72.5573 19.5468C72.5573 19.5468 71.9688 20.0104 71.9635 20.0937C71.9531 20.1823 72.474 21.5885 72.474 21.8802C72.474 22.1718 72.9271 23.2396 72.9062 23.3958C72.8854 23.5573 71.1979 25.1823 70.1979 25.7083C69.1979 26.2343 67.724 26.651 67.125 27.1406C67.125 27.1406 66.0312 27.0677 65.6146 26.4271C65.1979 25.7812 64.3698 24.7448 62.8594 25.125C62.8594 25.125 63.0833 23.4635 63.1823 23.125C63.276 22.7864 64.4635 21.3125 64.0469 19.9323C63.6354 18.5573 63.8958 17.6354 63.7865 17.276C63.6719 16.9166 63.6719 16.8802 63.6719 16.8802C63.4792 15.9843 61.6094 15.0781 59.9167 15.0677ZM46.9896 27.9166C46.9896 27.9166 47.974 28.3698 48.7448 28.3698C48.7448 28.3698 49.3906 29.2916 49.5365 29.3125C49.6927 29.3333 50.1615 29.0104 50.5573 29.2031C50.9531 29.3906 51.5208 29.7291 51.6354 30.0104C51.7448 30.2968 51.5937 31.5781 51.5937 31.5781C50.7865 31.4479 49.0104 32.5573 48.7656 32.7656C48.5208 32.9739 46.5208 32.6927 46.5208 32.6927C45.8385 31.2396 46.276 30.3906 46.4844 29.8229C46.6927 29.2552 46.9896 27.9166 46.9896 27.9166Z" fill="#000D49"/>
<path d="M58.3125 24.1041C58.3125 24.1041 57.0469 24.2395 56.7812 24.3125C56.5208 24.3906 55.6302 24.6354 55.5573 24.6354C55.4792 24.6354 54.724 24.2968 54.3125 24.2031C53.8958 24.1041 52.5 24.2968 52.5 24.2968L53.0469 24.6145C50.2187 24.1458 48.0469 24.5208 48.0469 24.5208C48.0469 24.5208 49.1042 26.5052 49.6875 28.7656C49.6875 28.7656 49.6302 26.75 49.3281 25.3333C49.3281 25.3333 52.4792 27.2031 53.651 30.4843C53.651 30.4843 52.8594 27.0677 52.3854 25.9166C52.3854 25.9166 53.2917 25.5781 54.9115 25.7864L54.1198 25.0677L55.6146 25.3541C55.6146 25.3541 56.3281 24.75 56.7448 24.6562C57.1615 24.5625 58.3125 24.1041 58.3125 24.1041Z" fill="white"/>
<path d="M62.6355 38.651C63.1042 37.2552 63.2552 36.0104 63.2552 36.0104C61.8386 38.4844 58.0469 41.4427 58.0469 41.4427C59.823 41.2188 61.6511 40.7656 61.6511 40.7656C56.8802 43.4635 51.5365 42.7656 51.5365 42.7656C51.5365 42.7656 60.1823 44.9896 64.6302 41.2188C64.6302 41.2188 64.1615 39.4844 64.1407 39.0104C64.125 38.5365 64.9323 32.5 64.7448 30.7656C64.7448 30.7656 64.2552 36.6719 62.6355 38.651Z" fill="white"/>
<path d="M62.9531 25.5938C62.9531 25.5938 63.7083 25.3698 64.3385 25.849C64.9687 26.3334 65.2604 27.1042 65.6771 27.349C66.0938 27.599 67.4427 27.6979 67.4427 27.6979C67.4427 27.6979 68.0104 28.6354 67.9427 29.5521C67.8802 30.474 66.3281 31.2604 66.3281 31.2604C66.3281 31.2604 67.224 30.1407 67.3021 29.6094C67.3854 29.0729 67.0365 28.2344 67.0365 28.2344L66.9844 29.2448C66.9844 29.2448 65.9271 28.3386 65.5833 27.9115C65.2396 27.4844 64.3646 25.625 62.9531 25.5938Z" fill="white"/>
<path d="M38.7448 59.0833C38.7448 59.0833 39.4427 55.724 41.2187 52.7656C41.2187 52.7656 42.177 52.2917 42.5208 51.9167C42.8593 51.5365 49.8385 46.7656 49.9739 46.5573C50.1041 46.349 50.8958 44.6719 50.8958 44.6719C50.8958 44.6719 52.9531 45.4844 55.4062 45.8385L51.5781 45.6146C51.5781 45.6146 51.0468 46.7292 50.8958 46.8802C50.7448 47.0312 43.4114 52.0625 43.302 52.25C43.1979 52.4375 42.1302 53.1563 41.7552 53.2865C41.3854 53.4219 39.177 57.1198 38.7448 59.0833Z" fill="white"/>
<path d="M52.1823 51.7656C52.1823 51.7656 56.4427 51.5 62.8229 53.7239C69.1979 55.9531 70.4427 57.026 71.2552 57.4062C72.0677 57.7864 73.5937 58.427 74.7239 58.6145C75.8593 58.802 78.3489 59.6875 78.3489 59.6875C78.3489 59.6875 76.1041 58.5937 74.7083 58.0833C73.3125 57.5781 70.4843 56.3125 69.802 55.7448C69.1198 55.1823 57.8229 50.1875 52.1823 51.7656Z" fill="white"/>
<path d="M63.7969 43.7084C63.7969 43.7084 67.724 49.6511 74.1042 54.4792C74.1042 54.4792 75.1198 54.4063 75.6562 55.0209C75.6562 55.0209 76.4688 54.9844 76.776 55.3177C77.0833 55.6511 78.4323 55.6511 78.6875 55.6875C78.9375 55.7292 81.3542 56.7969 81.3542 56.7969C81.3542 56.7969 79.0833 56.1302 78.5 56.1407C77.9115 56.1563 76.9271 56.1302 76.6198 55.9011C76.3125 55.6771 75.4323 55.6615 75.4323 55.6615C75.4323 55.6615 74.3906 54.9427 73.724 55.198C73.724 55.198 66.8125 49.6146 63.7969 43.7084Z" fill="white"/>
<path d="M50.1354 37.5469C50.5209 37.5833 51.8021 36.7292 52.724 34.7083C53.6511 32.6875 52.2761 31.9896 51.8594 31.9167C51.4427 31.8437 49.1615 33.0885 49.1615 33.0885L49.349 33.4479C48.349 33.1823 47.2552 33.276 47.2552 33.276C47.2552 33.276 46.7448 34.9739 46.0104 35.1823C45.2709 35.3906 44.6511 35.1042 44.6511 35.1042C44.6511 35.1042 43.6667 35.8594 43.7657 36.0885C43.8594 36.3125 46.0834 37.9948 48.4427 37.8073C48.4427 37.8021 49.6146 38.2187 50.1354 37.5469Z" fill="white"/>
<path d="M74.8281 21.5C75.7865 20.5104 74.849 19.0313 73.5938 19.4271C74.3177 19.5521 75.401 19.8854 74.8281 21.5Z" fill="white"/>
<mask id="mask6_40_2118" style="mask-type:luminance" maskUnits="userSpaceOnUse" x="21" y="69" width="75" height="7">
<path d="M21.3334 69.6771H95.5938V75.0105H21.3334V69.6771Z" fill="white"/>
</mask>
<g mask="url(#mask6_40_2118)">
<path d="M95.0365 72.8177C95.0365 74 78.599 74.9584 58.3282 74.9584C38.0522 74.9584 21.6199 74 21.6199 72.8177C21.6199 71.6355 38.0522 70.6771 58.3282 70.6771C78.599 70.6771 95.0365 71.6355 95.0365 72.8177Z" fill="#000D49"/>
</g>
<mask id="mask7_40_2118" style="mask-type:luminance" maskUnits="userSpaceOnUse" x="24" y="72" width="13" height="14">
<path d="M24.8959 72.7552H36.8646V85.7188H24.8959V72.7552Z" fill="white"/>
</mask>
<g mask="url(#mask7_40_2118)">
<path d="M36.8595 78.9427C36.8595 78.9636 36.8595 78.9844 36.8595 79.0105C36.8595 79.0261 36.8595 79.0417 36.8595 79.0625C36.8595 79.0677 36.8595 79.073 36.8595 79.0834C36.8595 79.099 36.8595 79.1198 36.8595 79.1355C36.8595 79.1511 36.8595 79.1719 36.8542 79.1875C36.8542 79.2344 36.8542 79.2761 36.849 79.323C36.849 79.3282 36.849 79.3282 36.849 79.3334C36.849 79.349 36.849 79.3594 36.849 79.3802C36.849 79.3959 36.8438 79.4167 36.8438 79.4375C36.8386 79.4584 36.8386 79.4792 36.8386 79.5C36.8334 79.5521 36.8282 79.599 36.823 79.6511V79.6563C36.823 79.6823 36.8178 79.7084 36.8178 79.7292C36.8126 79.7605 36.8074 79.7865 36.8074 79.8177C36.8022 79.8594 36.797 79.9011 36.7865 79.9427C36.7865 79.948 36.7865 79.9532 36.7865 79.9584C36.7813 79.9688 36.7813 79.9792 36.7813 79.9896C36.7761 80.0052 36.7761 80.0157 36.7709 80.0313C36.7709 80.0365 36.7709 80.0469 36.7709 80.0521C36.7657 80.073 36.7605 80.0938 36.7605 80.1146C36.7553 80.1407 36.7501 80.1615 36.7449 80.1875C36.7345 80.2396 36.724 80.2917 36.7136 80.3386C36.7084 80.3646 36.7032 80.3907 36.698 80.4167C36.6928 80.4375 36.6876 80.4636 36.6772 80.4896C36.6615 80.5573 36.6459 80.6198 36.6251 80.6875C36.6251 80.698 36.6199 80.7136 36.6147 80.724C36.5834 80.8438 36.5417 80.9636 36.5001 81.0782C36.4949 81.099 36.4845 81.1198 36.4792 81.1407C36.4584 81.1927 36.4428 81.2396 36.422 81.2865C36.4167 81.3073 36.4011 81.3282 36.3959 81.349C36.3855 81.3698 36.3803 81.3907 36.3699 81.4115C36.3699 81.4167 36.3647 81.4219 36.3647 81.4271C36.349 81.4636 36.3334 81.5 36.3178 81.5365C36.3126 81.5469 36.3074 81.5573 36.3022 81.5677C36.2917 81.5834 36.2865 81.599 36.2761 81.6198C36.2709 81.6302 36.2657 81.6459 36.2605 81.6563C36.2501 81.6719 36.2449 81.6823 36.2397 81.698C36.2292 81.7136 36.2188 81.7344 36.2084 81.7552C36.198 81.7761 36.1876 81.7969 36.1772 81.8177C36.1667 81.8334 36.1615 81.849 36.1563 81.8594C36.1459 81.875 36.1407 81.8959 36.1303 81.9115C36.1147 81.9323 36.1042 81.9584 36.0886 81.9792C36.073 82.0105 36.0574 82.0365 36.0417 82.0677C36.0313 82.0834 36.0209 82.099 36.0157 82.1146C35.9949 82.1511 35.974 82.1875 35.9532 82.224C35.9272 82.2552 35.9063 82.2917 35.8855 82.323C35.8751 82.3386 35.8647 82.3542 35.8542 82.375C35.849 82.3855 35.8386 82.4011 35.8282 82.4115C35.8126 82.4375 35.797 82.4584 35.7813 82.4844C35.7761 82.4948 35.7657 82.5052 35.7553 82.5209C35.7345 82.5521 35.7136 82.5834 35.6876 82.6146C34.599 84.1355 32.849 85.1198 30.8803 85.1198C30.5261 85.1198 30.1824 85.0834 29.8438 85.0261C29.823 85.0209 29.8022 85.0157 29.7813 85.0157C29.7709 85.0105 29.7553 85.0105 29.7449 85.0052C29.7032 85 29.6563 84.9896 29.6147 84.9792C29.599 84.974 29.5886 84.974 29.573 84.9688C29.547 84.9636 29.5157 84.9532 29.4897 84.948C29.4636 84.9427 29.4376 84.9323 29.4115 84.9271L28.9428 85.7084V79.5L30.6667 81.9636L32.4636 79.3334V81.9636H33.8022V75.3021L30.6824 79.7657L29.6199 78.2084L27.6355 75.3073V84.1459C27.573 84.099 27.5105 84.0573 27.4428 84.0105C27.4272 84 27.4115 83.9896 27.3959 83.974C27.3803 83.9636 27.3647 83.948 27.349 83.9375C27.3334 83.9271 27.3178 83.9167 27.3022 83.9063C27.2136 83.8334 27.1251 83.7657 27.0417 83.6927C27.0313 83.6823 27.0157 83.6719 27.0105 83.6615C26.974 83.6302 26.9324 83.5938 26.8959 83.5625C26.8803 83.5469 26.8699 83.5365 26.8542 83.5209C26.8386 83.5052 26.8282 83.4948 26.8126 83.4844C26.7553 83.4271 26.698 83.3698 26.6459 83.3125C26.6303 83.3021 26.6199 83.2865 26.6042 83.2709C26.5782 83.2396 26.5522 83.2136 26.5261 83.1823C26.5105 83.1667 26.5001 83.1511 26.4845 83.1407C26.4688 83.1198 26.4584 83.1042 26.4428 83.0886C26.4324 83.073 26.422 83.0625 26.4115 83.0469C26.4011 83.0417 26.3959 83.0313 26.3855 83.0209C26.3751 83.0105 26.3647 82.9948 26.3542 82.9844C26.3438 82.974 26.3386 82.9636 26.3334 82.9584C26.3178 82.9427 26.3074 82.9271 26.297 82.9115C26.2813 82.8959 26.2709 82.8802 26.2605 82.8646C26.2449 82.849 26.2345 82.8334 26.2188 82.8177C26.2084 82.8021 26.198 82.7865 26.1824 82.7709C26.172 82.7552 26.1615 82.7396 26.1459 82.724C26.1251 82.6927 26.099 82.6615 26.073 82.6302C26.0626 82.6146 26.0522 82.6042 26.047 82.5886C26.0001 82.5209 25.9532 82.4532 25.9063 82.3855C25.9011 82.375 25.8907 82.3594 25.8803 82.3438C25.7865 82.1927 25.6928 82.0313 25.6042 81.8698C25.5886 81.8386 25.573 81.8021 25.5522 81.7657C25.5261 81.7084 25.5001 81.6563 25.474 81.599C25.4688 81.5886 25.4636 81.5782 25.4584 81.5677C25.4428 81.5417 25.4324 81.5157 25.422 81.4896C25.4063 81.4532 25.3959 81.4219 25.3803 81.3855C25.3542 81.3282 25.3334 81.2657 25.3126 81.2084L25.3074 81.2032C25.3022 81.1875 25.2917 81.1615 25.2865 81.1459C25.2761 81.125 25.2709 81.099 25.2605 81.0782C25.2553 81.0573 25.2449 81.0365 25.2397 81.0157C25.2188 80.948 25.198 80.8855 25.1772 80.823C25.1772 80.8177 25.172 80.8073 25.172 80.8021C25.1667 80.7813 25.1615 80.7605 25.1511 80.7448C25.1459 80.7188 25.1355 80.698 25.1303 80.6719C25.1199 80.6302 25.1042 80.5834 25.0938 80.5365C25.0886 80.5105 25.0834 80.4896 25.0782 80.4688C25.073 80.448 25.073 80.4323 25.0678 80.4167C25.0626 80.4011 25.0626 80.3802 25.0574 80.3646C25.0574 80.3594 25.0522 80.3542 25.0522 80.349C25.047 80.3334 25.047 80.3177 25.0417 80.3021C25.0365 80.2813 25.0365 80.2605 25.0313 80.2396C25.0261 80.2188 25.0209 80.198 25.0157 80.1771C25.0105 80.1407 25.0001 80.099 24.9949 80.0573C24.9949 80.0417 24.9897 80.0157 24.9845 80C24.9792 79.9844 24.9792 79.9636 24.974 79.948C24.9688 79.9063 24.9636 79.8698 24.9584 79.8282C24.9532 79.8125 24.9532 79.7917 24.948 79.7761C24.948 79.7709 24.948 79.7605 24.948 79.7552C24.9428 79.7188 24.9376 79.6771 24.9324 79.6407C24.9272 79.5782 24.922 79.5209 24.9167 79.4636C24.9167 79.4375 24.9167 79.4115 24.9115 79.3907C24.9115 79.3855 24.9115 79.3855 24.9115 79.3855C24.9115 79.3594 24.9115 79.3386 24.9063 79.3125C24.9063 79.25 24.9011 79.1823 24.9011 79.1146C24.9011 79.1042 24.9011 79.0886 24.9011 79.073C24.9011 79.0573 24.9011 79.0365 24.9011 79.0157C24.9011 78.9948 24.9011 78.9688 24.9011 78.9427C24.9011 78.9167 24.9011 78.8959 24.9011 78.8698C24.9011 78.849 24.9011 78.8334 24.9011 78.8125C24.9011 78.7969 24.9011 78.7813 24.9011 78.7657C24.9011 78.7448 24.9011 78.724 24.9011 78.7032C24.9011 78.6771 24.9063 78.6511 24.9063 78.625C24.9063 78.6042 24.9063 78.5834 24.9063 78.5625C24.9063 78.5469 24.9115 78.5313 24.9115 78.5209C24.9115 78.5105 24.9115 78.4948 24.9115 78.4844C24.9115 78.4688 24.9167 78.4532 24.9167 78.4375C24.922 78.375 24.9272 78.3125 24.9324 78.25C24.9376 78.2344 24.9376 78.224 24.9376 78.2084C24.9428 78.198 24.9428 78.1823 24.9428 78.1667C24.948 78.1563 24.948 78.1407 24.948 78.1302C24.9532 78.1094 24.9532 78.0886 24.9584 78.0677C24.9636 78.0261 24.9688 77.9844 24.974 77.9427C24.9792 77.9271 24.9792 77.9063 24.9845 77.8855C24.9897 77.8646 24.9897 77.849 24.9949 77.823C25.0001 77.7969 25.0053 77.7709 25.0105 77.75C25.0157 77.7136 25.0209 77.6875 25.0261 77.6563C25.0261 77.6511 25.0313 77.6459 25.0313 77.6407C25.0313 77.625 25.0365 77.6042 25.0417 77.5886C25.0574 77.5105 25.073 77.4323 25.0938 77.3542C25.099 77.3334 25.1042 77.3177 25.1095 77.2969C25.1147 77.2761 25.1199 77.2605 25.1251 77.2396C25.1355 77.2032 25.1511 77.1615 25.1615 77.125C25.1667 77.1042 25.172 77.0886 25.1772 77.0677C25.1772 77.0677 25.1772 77.0677 25.1772 77.0625C25.1824 77.0469 25.1876 77.0261 25.198 77.0105C25.3438 76.5573 25.5365 76.125 25.7709 75.724C25.7709 75.724 25.7709 75.724 25.7761 75.724C25.7917 75.6927 25.8074 75.6667 25.823 75.6407C25.8386 75.6146 25.8542 75.5886 25.8699 75.5625C25.8855 75.5365 25.9011 75.5105 25.9167 75.4896C25.9167 75.4844 25.9272 75.4792 25.9272 75.474C25.9428 75.448 25.9584 75.4219 25.9792 75.4011C25.9949 75.375 26.0053 75.3542 26.0209 75.3334C26.0574 75.2813 26.0938 75.2344 26.1303 75.1823C26.1407 75.1719 26.1511 75.1563 26.1563 75.1459C26.1667 75.1355 26.1772 75.1198 26.1876 75.1042C26.2292 75.0521 26.2709 75 26.3126 74.948C26.3282 74.9323 26.3386 74.9219 26.3542 74.9063C26.3647 74.8855 26.3803 74.8698 26.3959 74.8594C26.4115 74.8334 26.4324 74.8125 26.448 74.7969C26.4636 74.7761 26.4845 74.7552 26.5001 74.7396C26.5157 74.7188 26.5313 74.7032 26.547 74.6875C26.5522 74.6875 26.5574 74.6771 26.5574 74.6771C26.573 74.6615 26.5886 74.6459 26.6042 74.6302C26.6199 74.6094 26.6355 74.5938 26.6511 74.5782C26.6667 74.5573 26.6876 74.5417 26.7032 74.5261C26.7136 74.5105 26.7292 74.5 26.7397 74.4896C26.7449 74.4792 26.7553 74.474 26.7657 74.4584C26.7761 74.448 26.7917 74.4375 26.8022 74.4219C26.8386 74.3855 26.8751 74.3542 26.9115 74.3177C26.9324 74.3021 26.948 74.2865 26.9636 74.2709C26.9792 74.2553 26.9949 74.2448 27.0053 74.2292C27.0157 74.224 27.0261 74.2136 27.0365 74.2084C27.0522 74.198 27.0626 74.1823 27.0782 74.1719C27.099 74.1563 27.1199 74.1355 27.1407 74.1198C27.1615 74.1042 27.1824 74.0886 27.2032 74.0677C27.2188 74.0573 27.2345 74.0469 27.2501 74.0313C27.2709 74.0157 27.2865 74.0052 27.3022 73.9896C27.3334 73.9688 27.3595 73.948 27.3907 73.9271C27.4063 73.9167 27.422 73.9011 27.4376 73.8907C27.4532 73.8802 27.474 73.8646 27.4949 73.849C27.5053 73.8438 27.5157 73.8334 27.5313 73.8282C27.5522 73.8125 27.573 73.7969 27.5938 73.7813C27.6199 73.7657 27.6511 73.7448 27.6772 73.7292C27.698 73.7188 27.7188 73.7032 27.7397 73.6875C27.7553 73.6771 27.7709 73.6719 27.7813 73.6615C27.8074 73.6459 27.8282 73.6302 27.849 73.6198C27.8699 73.6042 27.8959 73.5938 27.9167 73.5782C27.9376 73.5625 27.9636 73.5521 27.9897 73.5313C27.9949 73.5313 28.0001 73.5261 28.0105 73.5209C28.0313 73.5105 28.0522 73.4948 28.0782 73.4844C28.1147 73.4636 28.1511 73.4427 28.1876 73.4219C28.2032 73.4167 28.224 73.4063 28.2397 73.3959C28.2501 73.3907 28.2605 73.3855 28.2761 73.3802C28.297 73.3646 28.3178 73.3542 28.3386 73.3438C28.3647 73.3334 28.3907 73.3177 28.422 73.3073C28.4584 73.2917 28.4949 73.2761 28.5261 73.2552C28.5417 73.25 28.5626 73.2448 28.5782 73.2344C28.5886 73.2292 28.6042 73.224 28.6147 73.224C28.6355 73.2136 28.6615 73.198 28.6876 73.1927C28.7084 73.1823 28.7345 73.1719 28.7605 73.1615C28.7709 73.1615 28.7761 73.1563 28.7865 73.1511C28.8126 73.1407 28.8386 73.1302 28.8647 73.1198C28.8907 73.1146 28.9167 73.1042 28.9428 73.0938C28.9845 73.0782 29.0261 73.0625 29.0678 73.0521C29.0886 73.0417 29.1095 73.0365 29.1303 73.0261C29.1355 73.0261 29.1407 73.0261 29.1459 73.0209C29.1667 73.0157 29.1928 73.0052 29.2188 73C29.224 73 29.2345 73 29.2397 72.9948C29.2657 72.9844 29.2917 72.9792 29.3178 72.9688C29.3438 72.9636 29.3751 72.9584 29.4011 72.948C29.4167 72.948 29.4324 72.9428 29.448 72.9375C29.4636 72.9323 29.4792 72.9271 29.4949 72.9219C29.5053 72.9219 29.5105 72.9167 29.5209 72.9167C29.547 72.9115 29.573 72.9063 29.599 72.9011C29.6042 72.9011 29.6095 72.8959 29.6095 72.8959C29.6407 72.8907 29.672 72.8855 29.7032 72.875C29.7032 72.875 29.7032 72.875 29.7084 72.875C29.7397 72.8698 29.7657 72.8646 29.797 72.8594C29.8595 72.849 29.9167 72.8386 29.974 72.8282C29.9792 72.8282 29.9792 72.8282 29.9792 72.8282C29.9897 72.823 30.0053 72.823 30.0157 72.823C30.0365 72.8177 30.0626 72.8125 30.0834 72.8125C30.0886 72.8125 30.0938 72.8125 30.099 72.8073C30.1251 72.8021 30.1563 72.8021 30.1876 72.7969H30.1928C30.224 72.7969 30.2553 72.7917 30.2865 72.7865H30.2917C30.323 72.7865 30.349 72.7813 30.3803 72.7813C30.3855 72.7813 30.3907 72.7813 30.3959 72.7761C30.4272 72.7761 30.4584 72.7709 30.4897 72.7657C30.5105 72.7657 30.5365 72.7657 30.5574 72.7605C30.5626 72.7605 30.573 72.7605 30.5782 72.7605C30.5938 72.7605 30.6095 72.7605 30.6303 72.7605C30.6459 72.7605 30.6615 72.7552 30.672 72.7552C30.6824 72.7552 30.6876 72.7552 30.698 72.7552C30.724 72.7552 30.7501 72.7552 30.7813 72.7552C30.7813 72.7552 30.7865 72.7552 30.7917 72.7552C30.823 72.7552 30.8542 72.7552 30.8855 72.7552C34.1824 72.7605 36.8595 75.5313 36.8595 78.9427Z" fill="#F7B731"/>
</g>
<mask id="mask8_40_2118" style="mask-type:luminance" maskUnits="userSpaceOnUse" x="24" y="75" width="11" height="11">
<path d="M24.8959 75.0104H34.6667V85.7187H24.8959V75.0104Z" fill="white"/>
</mask>
<g mask="url(#mask8_40_2118)">
<path d="M25.1876 77.0103L27.6355 75.3124V84.1458C27.573 84.1041 27.5105 84.0572 27.4428 84.0155C27.4272 83.9999 27.4115 83.9895 27.3959 83.9791C27.3803 83.9687 27.3647 83.953 27.349 83.9426C27.3334 83.9322 27.3178 83.9166 27.3022 83.9062C27.2136 83.8385 27.1251 83.7655 27.0417 83.6926C27.0313 83.6874 27.0157 83.677 27.0105 83.6666C26.974 83.6353 26.9324 83.5989 26.8959 83.5624C26.8803 83.552 26.8699 83.5364 26.8542 83.526C26.8386 83.5103 26.8282 83.4999 26.8126 83.4843C26.7553 83.4322 26.698 83.3749 26.6459 83.3176C26.6303 83.302 26.6199 83.2864 26.6042 83.2708C26.5782 83.2447 26.5522 83.2135 26.5261 83.1822C26.5105 83.1718 26.5001 83.1562 26.4845 83.1405C26.4688 83.1249 26.4584 83.1093 26.4428 83.0937C26.4324 83.078 26.422 83.0624 26.4115 83.052C26.4011 83.0416 26.3959 83.0312 26.3855 83.0208C26.3751 83.0103 26.3647 82.9999 26.3542 82.9843C26.3438 82.9791 26.3386 82.9687 26.3334 82.9583C26.3178 82.9426 26.3074 82.9322 26.297 82.9114C26.2813 82.8958 26.2709 82.8853 26.2605 82.8697C26.2449 82.8489 26.2345 82.8385 26.2188 82.8228C26.2084 82.802 26.198 82.7916 26.1824 82.776C26.172 82.7603 26.1615 82.7395 26.1459 82.7291C26.1251 82.6926 26.099 82.6666 26.073 82.6301C26.0626 82.6197 26.0522 82.6041 26.047 82.5937C26.0001 82.526 25.9532 82.4583 25.9063 82.3905C25.9011 82.3749 25.8907 82.3593 25.8803 82.3489C25.7865 82.1926 25.6928 82.0364 25.6042 81.8697C25.5886 81.8385 25.573 81.802 25.5522 81.7655C25.5261 81.7135 25.5001 81.6562 25.474 81.6041C25.4688 81.5937 25.4636 81.5833 25.4584 81.5728C25.4428 81.5416 25.4324 81.5208 25.422 81.4895C25.4063 81.4583 25.3959 81.4218 25.3803 81.3853C25.3542 81.328 25.3334 81.2708 25.3126 81.2135C25.3126 81.2083 25.3074 81.2083 25.3074 81.2083C25.3022 81.1874 25.2917 81.1666 25.2865 81.1458C25.2761 81.1249 25.2709 81.1041 25.2605 81.0833C25.2553 81.0572 25.2449 81.0364 25.2397 81.0155C25.2188 80.953 25.198 80.8905 25.1772 80.828C25.1772 80.8176 25.172 80.8124 25.172 80.802C25.1667 80.7812 25.1615 80.7655 25.1511 80.7447C25.1459 80.7239 25.1355 80.703 25.1303 80.677C25.1199 80.6301 25.1042 80.5833 25.0938 80.5364C25.0886 80.5155 25.0834 80.4895 25.0782 80.4687C25.073 80.453 25.073 80.4374 25.0678 80.4218C25.0626 80.401 25.0626 80.3853 25.0574 80.3697C25.0574 80.3645 25.0522 80.3593 25.0522 80.3541C25.047 80.3385 25.047 80.3176 25.0417 80.302C25.0365 80.2812 25.0365 80.2603 25.0313 80.2395C25.0261 80.2239 25.0209 80.203 25.0157 80.1822C25.0105 80.1405 25.0001 80.1041 24.9949 80.0624C24.9949 80.0416 24.9897 80.0208 24.9845 79.9999C24.9792 79.9843 24.9792 79.9635 24.974 79.9478C24.9688 79.9114 24.9636 79.8697 24.9584 79.8333C24.9532 79.8124 24.9532 79.7968 24.948 79.776C24.948 79.7708 24.948 79.7655 24.948 79.7603C24.9428 79.7187 24.9376 79.6822 24.9324 79.6405C24.9272 79.5833 24.922 79.526 24.9167 79.4635C24.9167 79.4426 24.9167 79.4166 24.9115 79.3905C24.9115 79.3905 24.9115 79.3905 24.9115 79.3853C24.9115 79.3645 24.9115 79.3385 24.9063 79.3176C24.9063 79.2499 24.9011 79.1822 24.9011 79.1197C24.9011 79.1041 24.9011 79.0885 24.9011 79.078C24.9011 79.0572 24.9011 79.0364 24.9011 79.0208C24.9011 78.9947 24.9011 78.9687 24.9011 78.9478C24.9011 78.9218 24.9011 78.8958 24.9011 78.8697C24.9011 78.8541 24.9011 78.8333 24.9011 78.8124C24.9011 78.7968 24.9011 78.7864 24.9011 78.7655C24.9011 78.7447 24.9011 78.7291 24.9011 78.703C24.9011 78.6822 24.9063 78.651 24.9063 78.6301C24.9063 78.6041 24.9063 78.5833 24.9063 78.5624C24.9063 78.5468 24.9115 78.5364 24.9115 78.526C24.9115 78.5103 24.9115 78.4999 24.9115 78.4843C24.9115 78.4739 24.9167 78.4583 24.9167 78.4426C24.922 78.3801 24.9272 78.3176 24.9324 78.2499C24.9376 78.2395 24.9376 78.2239 24.9376 78.2135C24.9428 78.1978 24.9428 78.1874 24.9428 78.1718C24.948 78.1562 24.948 78.1458 24.948 78.1301C24.9532 78.1093 24.9532 78.0885 24.9584 78.0728C24.9636 78.0312 24.9688 77.9895 24.974 77.9478C24.9792 77.927 24.9792 77.9114 24.9845 77.8905C24.9845 77.8905 24.9845 77.8905 24.9845 77.8853C24.9897 77.8697 24.9897 77.8489 24.9949 77.828C25.0001 77.802 25.0053 77.776 25.0105 77.7499C25.0157 77.7187 25.0209 77.6874 25.0261 77.6562C25.0261 77.651 25.0313 77.6458 25.0313 77.6458C25.0313 77.6301 25.0365 77.6093 25.0417 77.5937C25.0574 77.5103 25.073 77.4322 25.0938 77.3593C25.099 77.3385 25.1042 77.3176 25.1095 77.2968C25.1147 77.2812 25.1199 77.2603 25.1251 77.2395C25.1355 77.203 25.1511 77.1666 25.1615 77.1249C25.1667 77.1093 25.172 77.0937 25.1772 77.0728C25.1772 77.0676 25.1772 77.0676 25.1772 77.0676C25.1772 77.0468 25.1824 77.026 25.1876 77.0103ZM32.4532 79.3333L30.6615 81.9635L28.9376 79.4999V85.7187L29.4063 84.9374C29.4324 84.9478 29.4584 84.953 29.4845 84.9583C29.5105 84.9635 29.5417 84.9739 29.5678 84.9791C29.5834 84.9791 29.5938 84.9843 29.6095 84.9895C29.6511 84.9999 29.698 85.0103 29.7397 85.0155C29.7501 85.0208 29.7657 85.0208 29.7761 85.026C29.797 85.026 29.8178 85.0312 29.8386 85.0364L33.7917 81.9635H32.4532V79.3333ZM33.7917 75.302L29.6199 78.2083L30.6824 79.7655L33.7917 75.302Z" fill="#D88500"/>
</g>
<mask id="mask9_40_2118" style="mask-type:luminance" maskUnits="userSpaceOnUse" x="0" y="80" width="121" height="33">
<path d="M0 80.3438H120.667V112.344H0V80.3438Z" fill="white"/>
</mask>
<g mask="url(#mask9_40_2118)">
<mask id="mask10_40_2118" style="mask-type:luminance" maskUnits="userSpaceOnUse" x="0" y="80" width="122" height="33">
<path d="M121.333 80.3438H0V112.344H121.333V80.3438Z" fill="white"/>
</mask>
<g mask="url(#mask10_40_2118)">
<path d="M2.00024 104.235V83.704H6.29191C7.70337 83.704 8.81795 83.8915 9.63045 84.2665C10.5055 84.6727 11.12 85.3238 11.4742 86.2248C11.7971 87.0581 11.9586 88.1571 11.9586 89.5217V89.8238C11.9586 91.0529 11.7294 92.0009 11.2659 92.6779C10.8127 93.3394 10.2607 93.8342 9.60962 94.1571L9.36483 93.6675L9.5992 93.1727C10.318 93.5165 10.9377 94.0581 11.4638 94.8029C11.995 95.5634 12.2607 96.6415 12.2607 98.0425V99.0634C12.2607 100.376 12.0732 101.444 11.6982 102.261C11.2971 103.136 10.6461 103.777 9.73983 104.183C8.88566 104.563 7.73983 104.766 6.29712 104.782H2.00024V104.235ZM3.09399 104.235H2.54712V103.688H6.2867C7.57837 103.673 8.57837 103.506 9.29191 103.188C9.94816 102.891 10.4169 102.433 10.7034 101.808C11.0107 101.131 11.1669 100.22 11.1669 99.0634V98.0425C11.1669 96.8706 10.9638 96.0009 10.568 95.4331C10.1565 94.8446 9.67733 94.4227 9.13045 94.1623L8.11483 93.6831L9.12004 93.1779C9.60441 92.9384 10.0159 92.5686 10.3648 92.0634C10.6982 91.5738 10.8648 90.8238 10.8648 89.8238V89.5217C10.8648 88.2925 10.7294 87.3238 10.4534 86.6259C10.2086 85.9956 9.78149 85.5425 9.17212 85.2613C8.50545 84.954 7.54712 84.7977 6.29191 84.7977H2.54712V84.2509H3.09399V104.235ZM5.81795 91.6727H6.51587C6.92733 91.6727 7.20337 91.5946 7.35441 91.4331C7.41691 91.3654 7.469 91.2456 7.51587 91.0738C7.56795 90.855 7.594 90.5686 7.594 90.2196V89.5217C7.594 88.8602 7.53149 88.4384 7.40129 88.2561C7.37004 88.2196 7.30233 88.1831 7.19816 88.1467C7.03149 88.0946 6.80233 88.0686 6.51587 88.0686H5.81795V87.5217H6.36483V92.2196H5.81795V91.6727ZM5.27108 92.7665V86.98H6.51587C7.38566 86.98 7.9742 87.1884 8.28149 87.6154C8.55233 87.9852 8.68774 88.6206 8.68774 89.5217V90.2196C8.68774 91.1467 8.51066 91.8029 8.15129 92.1831C7.7867 92.5738 7.23983 92.7665 6.51587 92.7665H5.27108ZM5.81795 100.418H6.51587C6.8492 100.418 7.11483 100.386 7.32316 100.324C7.4742 100.282 7.57837 100.225 7.64087 100.157C7.80754 99.9592 7.89608 99.5269 7.89608 98.8654V97.6415C7.89608 96.9956 7.79712 96.5634 7.5992 96.3446C7.4117 96.1415 7.05233 96.0373 6.51587 96.0373H5.81795V95.4904H6.36483V100.964H5.81795V100.418ZM5.27108 101.511V94.9436H6.51587C7.38045 94.9436 8.01066 95.1675 8.4117 95.6154C8.79712 96.0425 8.98462 96.7196 8.98462 97.6415V98.8654C8.98462 99.7977 8.81274 100.47 8.469 100.871C8.0992 101.298 7.44816 101.511 6.51587 101.511H5.27108Z" fill="white"/>
<path d="M17.4677 104.162L20.15 83.704H25.6084L28.374 104.782H23.9834L23.5615 100.641L24.1032 100.589V101.136H21.6552V100.589L22.1969 100.641L21.775 104.782H17.3844L17.4677 104.162ZM18.5511 104.308L18.0094 104.235V103.688H21.2802V104.235L20.7386 104.178L21.1604 100.043H24.5979L25.0198 104.178L24.4782 104.235V103.688H27.749V104.235L27.2073 104.308L24.5875 84.3238L25.1292 84.2509V84.7977H20.6292V84.2509L21.1709 84.3238L18.5511 104.308ZM21.9052 96.7925H23.8271V97.3394L23.2854 97.3967L22.3375 88.2821L22.8792 88.2248L23.4209 88.2821L22.4469 97.3967L21.9052 97.3394V96.7925ZM21.2959 97.8863L22.3375 88.1675H23.4209L24.4365 97.8863H21.2959Z" fill="white"/>
<path d="M38.7911 105.032C37.5931 105.032 36.6036 104.803 35.8275 104.345C35.015 103.865 34.4265 103.037 34.0619 101.86C33.7181 100.766 33.5463 99.2613 33.5463 97.3394V96.7925H37.9108V97.3394C37.9108 98.4123 37.9577 99.204 38.0411 99.7248C38.114 100.147 38.2077 100.412 38.3275 100.516C38.4421 100.615 38.5931 100.668 38.7911 100.668C38.9994 100.668 39.1348 100.61 39.1921 100.501C39.3119 100.272 39.3692 99.8186 39.3692 99.1415C39.3692 98.6102 39.3171 98.1727 39.2181 97.8342C39.1244 97.5165 38.9473 97.2092 38.6869 96.9123C38.4056 96.579 37.9838 96.204 37.4317 95.7769C36.8171 95.2821 36.2286 94.7769 35.6608 94.2613C35.0515 93.704 34.5515 93.0217 34.1661 92.204C33.7702 91.3811 33.5723 90.329 33.5723 89.0477C33.5723 87.3394 33.9629 85.9904 34.739 85.0009C35.5463 83.9696 36.8067 83.454 38.515 83.454C40.2338 83.454 41.5046 84.0217 42.3431 85.1519C43.1348 86.23 43.5358 87.8967 43.5358 90.1467V90.6936H39.1661V90.1467C39.1661 89.0581 39.0879 88.3759 38.9265 88.0946C38.8223 87.9123 38.6869 87.8186 38.515 87.8186C38.3275 87.8186 38.1973 87.8759 38.1192 87.9904C37.9994 88.1727 37.9369 88.5269 37.9369 89.0477C37.9369 89.7196 38.0827 90.2352 38.3692 90.5946C38.7077 91.0113 39.2129 91.4748 39.89 91.98C40.614 92.5321 41.2598 93.0946 41.8275 93.6727C42.4317 94.2821 42.9004 95.0217 43.2338 95.8811C43.5671 96.7352 43.7338 97.8238 43.7338 99.1415C43.7338 100.975 43.3588 102.402 42.6036 103.423C41.8119 104.496 40.5411 105.032 38.7911 105.032ZM38.7911 103.938C40.1713 103.938 41.1504 103.553 41.7233 102.772C42.3327 101.949 42.64 100.735 42.64 99.1415C42.64 97.9592 42.4994 97.0061 42.2181 96.2769C41.9369 95.5581 41.5463 94.9436 41.0515 94.4384C40.5202 93.9019 39.9161 93.3706 39.239 92.8602C38.4838 92.2977 37.9108 91.7717 37.515 91.2769C37.0671 90.7196 36.8431 89.9748 36.8431 89.0477C36.8431 88.3029 36.9681 87.7509 37.2129 87.3811C37.5046 86.9488 37.9369 86.73 38.515 86.73C39.1088 86.73 39.5671 87.0009 39.8796 87.5529C40.1348 88.0061 40.2598 88.8706 40.2598 90.1467H39.7129V89.5998H42.989V90.1467H42.4421C42.4421 88.1363 42.114 86.6884 41.4629 85.7977C40.8431 84.9644 39.864 84.5477 38.515 84.5477C37.1608 84.5477 36.1869 84.9227 35.5983 85.6779C34.9786 86.4696 34.6661 87.5894 34.6661 89.0477C34.6661 90.1623 34.8275 91.0581 35.1504 91.7352C35.4786 92.4175 35.8952 92.9904 36.4004 93.454C36.9473 93.954 37.515 94.4384 38.0983 94.9123C38.7129 95.3811 39.1869 95.8134 39.515 96.1988C39.8744 96.6154 40.1244 97.0581 40.265 97.5217C40.3952 97.9644 40.4629 98.5061 40.4629 99.1415C40.4629 99.9956 40.364 100.615 40.1661 101.001C40.0306 101.256 39.8379 101.449 39.5879 101.584C39.364 101.699 39.0983 101.761 38.7911 101.761C38.3223 101.761 37.9265 101.615 37.6036 101.334C37.2911 101.058 37.0775 100.579 36.9629 99.9019C36.8692 99.3238 36.8223 98.4696 36.8223 97.3394H37.3692V97.8863H34.0931V97.3394H34.64C34.64 99.1519 34.7963 100.548 35.1036 101.537C35.3848 102.444 35.8119 103.063 36.3848 103.402C36.989 103.761 37.7911 103.938 38.7911 103.938Z" fill="white"/>
<path d="M48.9366 104.235V83.704H56.8741V88.0686H52.7544V87.5217H53.3012V92.6206H52.7544V92.0738H56.8741V96.4123H52.7544V95.8654H53.3012V100.964H52.7544V100.418H56.8741V104.782H48.9366V104.235ZM50.0304 104.235H49.4835V103.688H56.3273V104.235H55.7804V100.964H56.3273V101.511H52.2075V95.3186H56.3273V95.8654H55.7804V92.6206H56.3273V93.1675H52.2075V86.98H56.3273V87.5217H55.7804V84.2509H56.3273V84.7977H49.4835V84.2509H50.0304V104.235Z" fill="white"/>
<path d="M62.0758 104.235V83.704H66.3675C67.7789 83.704 68.8935 83.8915 69.706 84.2665C70.581 84.6727 71.1956 85.3238 71.5498 86.2248C71.8727 87.0581 72.0341 88.1571 72.0341 89.5217V89.8238C72.0341 91.0529 71.805 92.0009 71.3414 92.6779C70.8883 93.3394 70.3362 93.8342 69.6852 94.1571L69.4404 93.6675L69.6748 93.1727C70.3935 93.5165 71.0133 94.0581 71.5393 94.8029C72.0706 95.5634 72.3362 96.6415 72.3362 98.0425V99.0634C72.3362 100.376 72.1487 101.444 71.7737 102.261C71.3727 103.136 70.7216 103.777 69.8154 104.183C68.9612 104.563 67.8154 104.766 66.3727 104.782H62.0758V104.235ZM63.1696 104.235H62.6227V103.688H66.3623C67.6539 103.673 68.6539 103.506 69.3675 103.188C70.0237 102.891 70.4925 102.433 70.7789 101.808C71.0862 101.131 71.2425 100.22 71.2425 99.0634V98.0425C71.2425 96.8706 71.0393 96.0009 70.6435 95.4331C70.2321 94.8446 69.7529 94.4227 69.206 94.1623L68.1904 93.6831L69.1956 93.1779C69.68 92.9384 70.0914 92.5686 70.4404 92.0634C70.7737 91.5738 70.9404 90.8238 70.9404 89.8238V89.5217C70.9404 88.2925 70.805 87.3238 70.5289 86.6259C70.2841 85.9956 69.8571 85.5425 69.2477 85.2613C68.581 84.954 67.6227 84.7977 66.3675 84.7977H62.6227V84.2509H63.1696V104.235ZM65.8935 91.6727H66.5914C67.0029 91.6727 67.2789 91.5946 67.43 91.4331C67.4925 91.3654 67.5446 91.2456 67.5914 91.0738C67.6435 90.855 67.6696 90.5686 67.6696 90.2196V89.5217C67.6696 88.8602 67.6071 88.4384 67.4768 88.2561C67.4456 88.2196 67.3779 88.1831 67.2737 88.1467C67.1071 88.0946 66.8779 88.0686 66.5914 88.0686H65.8935V87.5217H66.4404V92.2196H65.8935V91.6727ZM65.3466 92.7665V86.98H66.5914C67.4612 86.98 68.0498 87.1884 68.3571 87.6154C68.6279 87.9852 68.7633 88.6206 68.7633 89.5217V90.2196C68.7633 91.1467 68.5862 91.8029 68.2268 92.1831C67.8623 92.5738 67.3154 92.7665 66.5914 92.7665H65.3466ZM65.8935 100.418H66.5914C66.9248 100.418 67.1904 100.386 67.3987 100.324C67.5498 100.282 67.6539 100.225 67.7164 100.157C67.8831 99.9592 67.9716 99.5269 67.9716 98.8654V97.6415C67.9716 96.9956 67.8727 96.5634 67.6748 96.3446C67.4873 96.1415 67.1279 96.0373 66.5914 96.0373H65.8935V95.4904H66.4404V100.964H65.8935V100.418ZM65.3466 101.511V94.9436H66.5914C67.456 94.9436 68.0862 95.1675 68.4873 95.6154C68.8727 96.0425 69.0602 96.7196 69.0602 97.6415V98.8654C69.0602 99.7977 68.8883 100.47 68.5446 100.871C68.1748 101.298 67.5237 101.511 66.5914 101.511H65.3466Z" fill="white"/>
<path d="M77.5434 104.162L80.2257 83.704H85.684L88.4497 104.782H84.059L83.6372 100.641L84.1788 100.589V101.136H81.7309V100.589L82.2726 100.641L81.8507 104.782H77.4601L77.5434 104.162ZM78.6267 104.308L78.0851 104.235V103.688H81.3559V104.235L80.8142 104.178L81.2361 100.043H84.6736L85.0955 104.178L84.5538 104.235V103.688H87.8247V104.235L87.283 104.308L84.6632 84.3238L85.2049 84.2509V84.7977H80.7049V84.2509L81.2465 84.3238L78.6267 104.308ZM81.9809 96.7925H83.9028V97.3394L83.3611 97.3967L82.4132 88.2821L82.9549 88.2248L83.4965 88.2821L82.5226 97.3967L81.9809 97.3394V96.7925ZM81.3715 97.8863L82.4132 88.1675H83.4965L84.5122 97.8863H81.3715Z" fill="white"/>
<path d="M93.575 104.235V83.704H97.9395V100.964H97.3927V100.418H101.512V104.782H93.575V104.235ZM94.6687 104.235H94.1218V103.688H100.966V104.235H100.419V100.964H100.966V101.511H96.8458V84.2509H97.3927V84.7977H94.1218V84.2509H94.6687V104.235Z" fill="white"/>
<path d="M106.714 104.235V83.704H111.079V100.964H110.532V100.418H114.652V104.782H106.714V104.235ZM107.808 104.235H107.261V103.688H114.105V104.235H113.558V100.964H114.105V101.511H109.985V84.2509H110.532V84.7977H107.261V84.2509H107.808V104.235Z" fill="white"/>
<path d="M2.54187 104.235V84.2561H6.29187C7.6252 84.2561 8.65645 84.4332 9.39604 84.7769C10.146 85.1103 10.6669 85.6624 10.9585 86.4228C11.2606 87.1884 11.4169 88.2249 11.4169 89.5269V89.8186C11.4169 90.9436 11.2137 91.7978 10.8127 92.3811C10.4065 92.954 9.92729 93.3811 9.3752 93.6728C10.0002 93.9644 10.5419 94.4436 11.0002 95.1103C11.469 95.7769 11.7085 96.7561 11.7085 98.0478V99.0686C11.7085 100.308 11.5315 101.298 11.1877 102.048C10.8544 102.787 10.2919 103.334 9.5002 103.694C8.71895 104.043 7.65125 104.225 6.29187 104.235H2.54187ZM5.8127 92.2144H6.52104C7.08875 92.2144 7.5002 92.0842 7.7502 91.8186C8.01062 91.5426 8.14604 91.0061 8.14604 90.2144V89.5269C8.14604 88.7353 8.04187 88.2092 7.83354 87.9436C7.63562 87.6676 7.19812 87.5269 6.52104 87.5269H5.8127V92.2144ZM5.8127 100.964H6.52104C7.28145 100.964 7.79187 100.819 8.04187 100.527C8.30229 100.225 8.4377 99.6676 8.4377 98.8603V97.6311C8.4377 96.8551 8.29187 96.3082 8.0002 95.9853C7.70854 95.6519 7.21375 95.4853 6.52104 95.4853H5.8127V100.964Z" fill="#000D49"/>
<path d="M18.0042 104.235L20.6292 84.2561H25.1292L27.7542 104.235H24.4833L24.1083 100.589H21.65L21.275 104.235H18.0042ZM21.9 97.3394H23.8375L22.8792 88.2144L21.9 97.3394Z" fill="#000D49"/>
<path d="M38.791 104.485C37.6921 104.485 36.7962 104.282 36.1035 103.881C35.4056 103.464 34.9004 102.735 34.5827 101.694C34.2598 100.652 34.1035 99.204 34.1035 97.3394H37.3743C37.3743 98.4384 37.416 99.2665 37.4993 99.8186C37.5931 100.36 37.7493 100.73 37.9577 100.923C38.1764 101.121 38.4577 101.214 38.791 101.214C39.2181 101.214 39.5098 101.063 39.666 100.756C39.8327 100.454 39.916 99.9124 39.916 99.1311C39.916 98.5478 39.8535 98.0634 39.7285 97.6728C39.6139 97.2874 39.4056 96.9176 39.1035 96.5686C38.7962 96.2092 38.3535 95.7978 37.7702 95.3394C37.1712 94.8551 36.5879 94.3603 36.0202 93.8603C35.4629 93.3499 35.0046 92.7144 34.6452 91.9644C34.2962 91.2144 34.1243 90.2457 34.1243 89.0478C34.1243 87.4644 34.4681 86.2301 35.166 85.3394C35.8587 84.454 36.9785 84.0061 38.5202 84.0061C40.0462 84.0061 41.1712 84.5009 41.8952 85.4853C42.6139 86.4592 42.9785 88.0165 42.9785 90.1519H39.7077C39.7077 88.9749 39.6035 88.204 39.3952 87.8394C39.1868 87.4644 38.8952 87.2769 38.5202 87.2769C38.1296 87.2769 37.8431 87.4176 37.666 87.6936C37.4837 87.9592 37.3952 88.4124 37.3952 89.0478C37.3952 89.8551 37.5723 90.4853 37.9368 90.9436C38.3118 91.4019 38.8535 91.8967 39.5618 92.4228C40.2702 92.954 40.8952 93.5009 41.4368 94.0686C41.9889 94.6259 42.4212 95.2978 42.7285 96.0894C43.0306 96.8707 43.1868 97.8811 43.1868 99.1311C43.1868 100.855 42.8431 102.183 42.166 103.11C41.4837 104.027 40.3587 104.485 38.791 104.485Z" fill="#000D49"/>
<path d="M49.4784 104.235V84.2561H56.3326V87.5269H52.7492V92.6103H56.3326V95.8603H52.7492V100.964H56.3326V104.235H49.4784Z" fill="#000D49"/>
<path d="M62.6176 104.235V84.2561H66.3676C67.7009 84.2561 68.7321 84.4332 69.4717 84.7769C70.2217 85.1103 70.7426 85.6624 71.0342 86.4228C71.3363 87.1884 71.4926 88.2249 71.4926 89.5269V89.8186C71.4926 90.9436 71.2894 91.7978 70.8884 92.3811C70.4821 92.954 70.003 93.3811 69.4509 93.6728C70.0759 93.9644 70.6176 94.4436 71.0759 95.1103C71.5446 95.7769 71.7842 96.7561 71.7842 98.0478V99.0686C71.7842 100.308 71.6071 101.298 71.2634 102.048C70.9301 102.787 70.3676 103.334 69.5759 103.694C68.7946 104.043 67.7269 104.225 66.3676 104.235H62.6176ZM65.8884 92.2144H66.5967C67.1644 92.2144 67.5759 92.0842 67.8259 91.8186C68.0863 91.5426 68.2217 91.0061 68.2217 90.2144V89.5269C68.2217 88.7353 68.1176 88.2092 67.9092 87.9436C67.7113 87.6676 67.2738 87.5269 66.5967 87.5269H65.8884V92.2144ZM65.8884 100.964H66.5967C67.3571 100.964 67.8676 100.819 68.1176 100.527C68.378 100.225 68.5134 99.6676 68.5134 98.8603V97.6311C68.5134 96.8551 68.3676 96.3082 68.0759 95.9853C67.7842 95.6519 67.2894 95.4853 66.5967 95.4853H65.8884V100.964Z" fill="#000D49"/>
<path d="M78.0798 104.235L80.7048 84.2561H85.2048L87.8298 104.235H84.559L84.184 100.589H81.7257L81.3507 104.235H78.0798ZM81.9757 97.3394H83.9132L82.9548 88.2144L81.9757 97.3394Z" fill="#000D49"/>
<path d="M94.1166 104.235V84.2561H97.3874V100.964H100.971V104.235H94.1166Z" fill="#000D49"/>
<path d="M107.256 104.235V84.2561H110.527V100.964H114.11V104.235H107.256Z" fill="#000D49"/>
</g>
</g>
<mask id="mask11_40_2118" style="mask-type:luminance" maskUnits="userSpaceOnUse" x="32" y="111" width="59" height="7">
<path d="M90.6667 111.01H32V117.677H90.6667V111.01Z" fill="white"/>
</mask>
<g mask="url(#mask11_40_2118)">
<mask id="mask12_40_2118" style="mask-type:luminance" maskUnits="userSpaceOnUse" x="32" y="112" width="6" height="5">
<path d="M32.3854 112.344H37.3333V116.344H32.3854V112.344Z" fill="white"/>
</mask>
<g mask="url(#mask12_40_2118)">
<path d="M35.6578 115.361H33.8661L33.4911 116.194H33.012L34.5328 112.84H34.9911L36.5328 116.194H36.012L35.6578 115.361ZM35.4911 114.965L34.762 113.319L34.0328 114.965H35.4911Z" fill="#CF7339"/>
</g>
<path d="M42.3407 116.236C42.0073 116.236 41.7 116.163 41.424 116.007C41.1584 115.856 40.95 115.652 40.799 115.402C40.6427 115.142 40.5698 114.85 40.5698 114.527C40.5698 114.194 40.6427 113.902 40.799 113.652C40.95 113.392 41.1584 113.184 41.424 113.027C41.7 112.876 42.0073 112.798 42.3407 112.798C42.6011 112.798 42.8459 112.85 43.0698 112.944C43.2886 113.027 43.4761 113.152 43.6323 113.319L43.3198 113.632C43.0542 113.371 42.7365 113.236 42.3615 113.236C42.1115 113.236 41.8823 113.293 41.674 113.402C41.4761 113.517 41.325 113.668 41.2157 113.861C41.1011 114.059 41.049 114.277 41.049 114.527C41.049 114.767 41.1011 114.981 41.2157 115.173C41.325 115.371 41.4761 115.522 41.674 115.632C41.8823 115.746 42.1115 115.798 42.3615 115.798C42.7365 115.798 43.0542 115.668 43.3198 115.402L43.6323 115.715C43.4761 115.882 43.2886 116.017 43.0698 116.111C42.8459 116.194 42.6011 116.236 42.3407 116.236Z" fill="#CF7339"/>
<path d="M50.2722 115.361H48.4805L48.1055 116.194H47.6263L49.1472 112.84H49.6055L51.1472 116.194H50.6263L50.2722 115.361ZM50.1055 114.965L49.3763 113.319L48.6472 114.965H50.1055Z" fill="#CF7339"/>
<path d="M55.455 112.84H56.8716C57.231 112.84 57.5435 112.913 57.8091 113.048C58.0852 113.189 58.2987 113.392 58.455 113.652C58.606 113.902 58.6841 114.194 58.6841 114.527C58.6841 114.85 58.606 115.142 58.455 115.402C58.2987 115.652 58.0852 115.85 57.8091 115.986C57.5435 116.126 57.231 116.194 56.8716 116.194H55.455V112.84ZM56.8508 115.777C57.1112 115.777 57.3508 115.73 57.5591 115.632C57.7675 115.522 57.9237 115.371 58.0383 115.173C58.1477 114.98 58.205 114.767 58.205 114.527C58.205 114.277 58.1477 114.059 58.0383 113.861C57.9237 113.668 57.7675 113.522 57.5591 113.423C57.3508 113.314 57.1112 113.257 56.8508 113.257H55.9341V115.777H56.8508Z" fill="#CF7339"/>
<path d="M65.6705 115.777V116.194H63.233V112.84H65.608V113.257H63.7122V114.277H65.3997V114.694H63.7122V115.777H65.6705Z" fill="#CF7339"/>
<path d="M73.3695 116.194V113.757L72.1612 115.777H71.932L70.7237 113.757V116.194H70.2654V112.84H70.6612L72.057 115.194L73.432 112.84H73.8279V116.194H73.3695Z" fill="#CF7339"/>
<path d="M79.9518 115.027V116.194H79.4726V115.027L78.1393 112.84H78.6601L79.7226 114.611L80.8059 112.84H81.2851L79.9518 115.027Z" fill="#CF7339"/>
</g>
<mask id="mask13_40_2118" style="mask-type:luminance" maskUnits="userSpaceOnUse" x="38" y="76" width="50" height="8">
<path d="M88 76.3438H38.6666V83.0104H88V76.3438Z" fill="white"/>
</mask>
<g mask="url(#mask13_40_2118)">
<mask id="mask14_40_2118" style="mask-type:luminance" maskUnits="userSpaceOnUse" x="38" y="77" width="6" height="5">
<path d="M38.7656 77.6771H44V81.6771H38.7656V77.6771Z" fill="white"/>
</mask>
<g mask="url(#mask14_40_2118)">
<path d="M41.9033 80.3576H40.1116L39.7366 81.191H39.2574L40.7783 77.8368H41.2366L42.7783 81.191H42.2574L41.9033 80.3576ZM41.7366 79.9618L41.0074 78.316L40.2783 79.9618H41.7366Z" fill="#CF7339"/>
</g>
<path d="M49.3362 81.191L48.607 80.1701C48.5237 80.1701 48.4508 80.1701 48.3987 80.1701H47.5653V81.191H47.0862V77.8368H48.3987C48.8258 77.8368 49.1695 77.941 49.4195 78.1493C49.6695 78.3576 49.7945 78.6441 49.7945 79.0035C49.7945 79.2691 49.732 79.493 49.607 79.6701C49.482 79.8524 49.2997 79.9826 49.0653 80.066L49.857 81.191H49.3362ZM48.3778 79.7535C48.6799 79.7535 48.9091 79.691 49.0653 79.566C49.232 79.441 49.3153 79.2535 49.3153 79.0035C49.3153 78.7691 49.232 78.5868 49.0653 78.4618C48.9091 78.3264 48.6799 78.2535 48.3778 78.2535H47.5653V79.7535H48.3778Z" fill="#CF7339"/>
<path d="M54.3909 77.8368H54.87V81.191H54.3909V77.8368Z" fill="#CF7339"/>
<path d="M62.1395 80.7743V81.191H59.702V77.8368H62.077V78.2535H60.1812V79.2743H61.8687V79.691H60.1812V80.7743H62.1395Z" fill="#CF7339"/>
<path d="M67.401 78.2535H66.2551V77.8368H69.026V78.2535H67.8801V81.191H67.401V78.2535Z" fill="#CF7339"/>
<path d="M74.0365 78.2535H72.8906V77.8368H75.6615V78.2535H74.5156V81.191H74.0365V78.2535Z" fill="#CF7339"/>
<path d="M82.1511 80.3576H80.3594L79.9844 81.191H79.5052L81.0261 77.8368H81.4844L83.0261 81.191H82.5052L82.1511 80.3576ZM81.9844 79.9618L81.2552 78.316L80.5261 79.9618H81.9844Z" fill="#CF7339"/>
</g>
</svg>
